<mxfile host="Electron" modified="2024-05-23T00:54:05.046Z" agent="Mozilla/5.0 (Windows NT 10.0; Win64; x64) AppleWebKit/537.36 (KHTML, like Gecko) draw.io/24.2.5 Chrome/120.0.6099.109 Electron/28.1.0 Safari/537.36" etag="G6Vdr80J5qZYDkUsmRLU" version="24.2.5" type="device" pages="5">
  <diagram id="8o7leehhzJAlqTiegunU" name="Caso de uso">
    <mxGraphModel dx="1114" dy="664" grid="1" gridSize="10" guides="1" tooltips="1" connect="1" arrows="1" fold="1" page="1" pageScale="1" pageWidth="827" pageHeight="1169" math="0" shadow="0">
      <root>
        <mxCell id="0" />
        <mxCell id="1" parent="0" />
        <mxCell id="L9g2ACyeu6dOz-VcWG2Z-1" style="edgeStyle=orthogonalEdgeStyle;rounded=0;orthogonalLoop=1;jettySize=auto;html=1;entryX=0;entryY=0.5;entryDx=0;entryDy=0;" parent="1" source="L9g2ACyeu6dOz-VcWG2Z-11" target="L9g2ACyeu6dOz-VcWG2Z-24" edge="1">
          <mxGeometry relative="1" as="geometry">
            <Array as="points">
              <mxPoint x="460" y="380" />
              <mxPoint x="460" y="195" />
            </Array>
          </mxGeometry>
        </mxCell>
        <mxCell id="L9g2ACyeu6dOz-VcWG2Z-2" style="edgeStyle=orthogonalEdgeStyle;rounded=0;orthogonalLoop=1;jettySize=auto;html=1;" parent="1" source="L9g2ACyeu6dOz-VcWG2Z-11" target="L9g2ACyeu6dOz-VcWG2Z-23" edge="1">
          <mxGeometry relative="1" as="geometry">
            <Array as="points">
              <mxPoint x="460" y="380" />
              <mxPoint x="460" y="280" />
            </Array>
          </mxGeometry>
        </mxCell>
        <mxCell id="L9g2ACyeu6dOz-VcWG2Z-3" style="edgeStyle=orthogonalEdgeStyle;rounded=0;orthogonalLoop=1;jettySize=auto;html=1;entryX=0;entryY=0.5;entryDx=0;entryDy=0;" parent="1" source="L9g2ACyeu6dOz-VcWG2Z-11" target="L9g2ACyeu6dOz-VcWG2Z-25" edge="1">
          <mxGeometry relative="1" as="geometry" />
        </mxCell>
        <mxCell id="L9g2ACyeu6dOz-VcWG2Z-4" style="edgeStyle=orthogonalEdgeStyle;rounded=0;orthogonalLoop=1;jettySize=auto;html=1;entryX=0;entryY=0.5;entryDx=0;entryDy=0;" parent="1" source="L9g2ACyeu6dOz-VcWG2Z-11" target="L9g2ACyeu6dOz-VcWG2Z-28" edge="1">
          <mxGeometry relative="1" as="geometry" />
        </mxCell>
        <mxCell id="L9g2ACyeu6dOz-VcWG2Z-5" style="edgeStyle=orthogonalEdgeStyle;rounded=0;orthogonalLoop=1;jettySize=auto;html=1;entryX=0;entryY=0.5;entryDx=0;entryDy=0;" parent="1" source="L9g2ACyeu6dOz-VcWG2Z-11" target="L9g2ACyeu6dOz-VcWG2Z-26" edge="1">
          <mxGeometry relative="1" as="geometry" />
        </mxCell>
        <mxCell id="L9g2ACyeu6dOz-VcWG2Z-6" style="edgeStyle=orthogonalEdgeStyle;rounded=0;orthogonalLoop=1;jettySize=auto;html=1;exitX=0.5;exitY=0.5;exitDx=0;exitDy=0;exitPerimeter=0;entryX=0;entryY=0.5;entryDx=0;entryDy=0;" parent="1" source="L9g2ACyeu6dOz-VcWG2Z-11" target="L9g2ACyeu6dOz-VcWG2Z-27" edge="1">
          <mxGeometry relative="1" as="geometry" />
        </mxCell>
        <mxCell id="L9g2ACyeu6dOz-VcWG2Z-7" style="edgeStyle=orthogonalEdgeStyle;rounded=0;orthogonalLoop=1;jettySize=auto;html=1;entryX=0;entryY=0.5;entryDx=0;entryDy=0;" parent="1" target="L9g2ACyeu6dOz-VcWG2Z-29" edge="1">
          <mxGeometry relative="1" as="geometry">
            <Array as="points">
              <mxPoint x="459" y="300" />
              <mxPoint x="459" y="925" />
            </Array>
            <mxPoint x="349" y="300" as="sourcePoint" />
          </mxGeometry>
        </mxCell>
        <mxCell id="L9g2ACyeu6dOz-VcWG2Z-8" style="edgeStyle=orthogonalEdgeStyle;rounded=0;orthogonalLoop=1;jettySize=auto;html=1;" parent="1" source="L9g2ACyeu6dOz-VcWG2Z-11" target="L9g2ACyeu6dOz-VcWG2Z-32" edge="1">
          <mxGeometry relative="1" as="geometry" />
        </mxCell>
        <mxCell id="L9g2ACyeu6dOz-VcWG2Z-9" style="edgeStyle=orthogonalEdgeStyle;rounded=0;orthogonalLoop=1;jettySize=auto;html=1;entryX=0;entryY=0.5;entryDx=0;entryDy=0;" parent="1" source="L9g2ACyeu6dOz-VcWG2Z-11" target="L9g2ACyeu6dOz-VcWG2Z-33" edge="1">
          <mxGeometry relative="1" as="geometry" />
        </mxCell>
        <mxCell id="L9g2ACyeu6dOz-VcWG2Z-11" value="Usuario" style="shape=umlActor;verticalLabelPosition=bottom;verticalAlign=top;html=1;" parent="1" vertex="1">
          <mxGeometry x="320" y="350" width="30" height="60" as="geometry" />
        </mxCell>
        <mxCell id="L9g2ACyeu6dOz-VcWG2Z-12" style="edgeStyle=orthogonalEdgeStyle;rounded=0;orthogonalLoop=1;jettySize=auto;html=1;entryX=0;entryY=0.5;entryDx=0;entryDy=0;" parent="1" source="L9g2ACyeu6dOz-VcWG2Z-21" target="L9g2ACyeu6dOz-VcWG2Z-22" edge="1">
          <mxGeometry relative="1" as="geometry" />
        </mxCell>
        <mxCell id="L9g2ACyeu6dOz-VcWG2Z-13" style="edgeStyle=orthogonalEdgeStyle;rounded=0;orthogonalLoop=1;jettySize=auto;html=1;entryX=0;entryY=0.5;entryDx=0;entryDy=0;" parent="1" source="L9g2ACyeu6dOz-VcWG2Z-21" target="L9g2ACyeu6dOz-VcWG2Z-30" edge="1">
          <mxGeometry relative="1" as="geometry" />
        </mxCell>
        <mxCell id="L9g2ACyeu6dOz-VcWG2Z-14" style="edgeStyle=orthogonalEdgeStyle;rounded=0;orthogonalLoop=1;jettySize=auto;html=1;entryX=0;entryY=0.5;entryDx=0;entryDy=0;" parent="1" source="L9g2ACyeu6dOz-VcWG2Z-21" target="L9g2ACyeu6dOz-VcWG2Z-31" edge="1">
          <mxGeometry relative="1" as="geometry" />
        </mxCell>
        <mxCell id="L9g2ACyeu6dOz-VcWG2Z-15" style="edgeStyle=orthogonalEdgeStyle;rounded=0;orthogonalLoop=1;jettySize=auto;html=1;entryX=0;entryY=0.5;entryDx=0;entryDy=0;" parent="1" source="L9g2ACyeu6dOz-VcWG2Z-21" target="L9g2ACyeu6dOz-VcWG2Z-34" edge="1">
          <mxGeometry relative="1" as="geometry" />
        </mxCell>
        <mxCell id="L9g2ACyeu6dOz-VcWG2Z-16" style="edgeStyle=orthogonalEdgeStyle;rounded=0;orthogonalLoop=1;jettySize=auto;html=1;entryX=0;entryY=0.5;entryDx=0;entryDy=0;" parent="1" source="L9g2ACyeu6dOz-VcWG2Z-21" target="L9g2ACyeu6dOz-VcWG2Z-35" edge="1">
          <mxGeometry relative="1" as="geometry" />
        </mxCell>
        <mxCell id="L9g2ACyeu6dOz-VcWG2Z-17" style="edgeStyle=orthogonalEdgeStyle;rounded=0;orthogonalLoop=1;jettySize=auto;html=1;entryX=0;entryY=0.5;entryDx=0;entryDy=0;" parent="1" source="L9g2ACyeu6dOz-VcWG2Z-21" target="L9g2ACyeu6dOz-VcWG2Z-37" edge="1">
          <mxGeometry relative="1" as="geometry" />
        </mxCell>
        <mxCell id="L9g2ACyeu6dOz-VcWG2Z-18" style="edgeStyle=orthogonalEdgeStyle;rounded=0;orthogonalLoop=1;jettySize=auto;html=1;entryX=0;entryY=0.5;entryDx=0;entryDy=0;" parent="1" source="L9g2ACyeu6dOz-VcWG2Z-21" target="L9g2ACyeu6dOz-VcWG2Z-38" edge="1">
          <mxGeometry relative="1" as="geometry">
            <Array as="points">
              <mxPoint x="1110" y="385" />
              <mxPoint x="1110" y="295" />
            </Array>
          </mxGeometry>
        </mxCell>
        <mxCell id="L9g2ACyeu6dOz-VcWG2Z-19" style="edgeStyle=orthogonalEdgeStyle;rounded=0;orthogonalLoop=1;jettySize=auto;html=1;entryX=0;entryY=0.5;entryDx=0;entryDy=0;" parent="1" source="L9g2ACyeu6dOz-VcWG2Z-21" target="L9g2ACyeu6dOz-VcWG2Z-39" edge="1">
          <mxGeometry relative="1" as="geometry" />
        </mxCell>
        <mxCell id="L9g2ACyeu6dOz-VcWG2Z-20" style="edgeStyle=orthogonalEdgeStyle;rounded=0;orthogonalLoop=1;jettySize=auto;html=1;entryX=0;entryY=0.5;entryDx=0;entryDy=0;" parent="1" source="L9g2ACyeu6dOz-VcWG2Z-21" target="L9g2ACyeu6dOz-VcWG2Z-41" edge="1">
          <mxGeometry relative="1" as="geometry" />
        </mxCell>
        <mxCell id="L9g2ACyeu6dOz-VcWG2Z-21" value="Administrador" style="shape=umlActor;verticalLabelPosition=bottom;verticalAlign=top;html=1;" parent="1" vertex="1">
          <mxGeometry x="970" y="355" width="30" height="60" as="geometry" />
        </mxCell>
        <mxCell id="L9g2ACyeu6dOz-VcWG2Z-22" value="Remover acesso" style="ellipse;whiteSpace=wrap;html=1;" parent="1" vertex="1">
          <mxGeometry x="1222" y="450" width="140" height="70" as="geometry" />
        </mxCell>
        <mxCell id="L9g2ACyeu6dOz-VcWG2Z-23" value="Login" style="ellipse;whiteSpace=wrap;html=1;" parent="1" vertex="1">
          <mxGeometry x="574" y="240" width="140" height="70" as="geometry" />
        </mxCell>
        <mxCell id="L9g2ACyeu6dOz-VcWG2Z-24" value="Cadastrar" style="ellipse;whiteSpace=wrap;html=1;" parent="1" vertex="1">
          <mxGeometry x="578" y="160" width="140" height="70" as="geometry" />
        </mxCell>
        <mxCell id="L9g2ACyeu6dOz-VcWG2Z-25" value="Publicar livro para empréstimo/doação/troca" style="ellipse;whiteSpace=wrap;html=1;" parent="1" vertex="1">
          <mxGeometry x="567" y="415" width="162" height="90" as="geometry" />
        </mxCell>
        <mxCell id="L9g2ACyeu6dOz-VcWG2Z-26" value="Remover Livros do empréstimo/doação/troca" style="ellipse;whiteSpace=wrap;html=1;" parent="1" vertex="1">
          <mxGeometry x="567" y="600" width="156" height="80" as="geometry" />
        </mxCell>
        <mxCell id="L9g2ACyeu6dOz-VcWG2Z-27" value="Solicitar empréstimo/troca/doação" style="ellipse;whiteSpace=wrap;html=1;" parent="1" vertex="1">
          <mxGeometry x="570" y="770" width="156" height="80" as="geometry" />
        </mxCell>
        <mxCell id="L9g2ACyeu6dOz-VcWG2Z-28" value="Verificar lista de livros disponiveis" style="ellipse;whiteSpace=wrap;html=1;" parent="1" vertex="1">
          <mxGeometry x="574" y="520" width="140" height="70" as="geometry" />
        </mxCell>
        <mxCell id="L9g2ACyeu6dOz-VcWG2Z-29" value="Avaliar usuário&amp;nbsp;" style="ellipse;whiteSpace=wrap;html=1;" parent="1" vertex="1">
          <mxGeometry x="574" y="890" width="140" height="70" as="geometry" />
        </mxCell>
        <mxCell id="L9g2ACyeu6dOz-VcWG2Z-30" value="Bloquear usuario" style="ellipse;whiteSpace=wrap;html=1;" parent="1" vertex="1">
          <mxGeometry x="1222" y="540" width="140" height="70" as="geometry" />
        </mxCell>
        <mxCell id="L9g2ACyeu6dOz-VcWG2Z-31" value="Desbloquear usuario" style="ellipse;whiteSpace=wrap;html=1;" parent="1" vertex="1">
          <mxGeometry x="1222" y="620" width="140" height="70" as="geometry" />
        </mxCell>
        <mxCell id="L9g2ACyeu6dOz-VcWG2Z-32" value="Editar dados" style="ellipse;whiteSpace=wrap;html=1;" parent="1" vertex="1">
          <mxGeometry x="574" y="330" width="140" height="70" as="geometry" />
        </mxCell>
        <mxCell id="L9g2ACyeu6dOz-VcWG2Z-33" value="Abrir reclamação&amp;nbsp;" style="ellipse;whiteSpace=wrap;html=1;" parent="1" vertex="1">
          <mxGeometry x="574" y="690" width="140" height="70" as="geometry" />
        </mxCell>
        <mxCell id="L9g2ACyeu6dOz-VcWG2Z-34" value="Visualizar reclamações de emprestimo" style="ellipse;whiteSpace=wrap;html=1;" parent="1" vertex="1">
          <mxGeometry x="1218" y="710" width="140" height="70" as="geometry" />
        </mxCell>
        <mxCell id="L9g2ACyeu6dOz-VcWG2Z-35" value="Aceitar reclamação" style="ellipse;whiteSpace=wrap;html=1;" parent="1" vertex="1">
          <mxGeometry x="1218" y="800" width="140" height="70" as="geometry" />
        </mxCell>
        <mxCell id="L9g2ACyeu6dOz-VcWG2Z-36" value="&lt;font style=&quot;font-size: 23px;&quot;&gt;Sistema de emprestimos e doação de livros em escolas&lt;/font&gt;" style="text;html=1;align=center;verticalAlign=middle;whiteSpace=wrap;rounded=0;" parent="1" vertex="1">
          <mxGeometry x="610" y="90" width="660" height="30" as="geometry" />
        </mxCell>
        <mxCell id="L9g2ACyeu6dOz-VcWG2Z-37" value="Cadastrar" style="ellipse;whiteSpace=wrap;html=1;" parent="1" vertex="1">
          <mxGeometry x="1220" y="160" width="140" height="70" as="geometry" />
        </mxCell>
        <mxCell id="L9g2ACyeu6dOz-VcWG2Z-38" value="Login" style="ellipse;whiteSpace=wrap;html=1;" parent="1" vertex="1">
          <mxGeometry x="1220" y="260" width="140" height="70" as="geometry" />
        </mxCell>
        <mxCell id="L9g2ACyeu6dOz-VcWG2Z-39" value="Gerenciar acessos" style="ellipse;whiteSpace=wrap;html=1;" parent="1" vertex="1">
          <mxGeometry x="1220" y="360" width="140" height="70" as="geometry" />
        </mxCell>
        <mxCell id="L9g2ACyeu6dOz-VcWG2Z-41" value="Recusar reclamação" style="ellipse;whiteSpace=wrap;html=1;" parent="1" vertex="1">
          <mxGeometry x="1218" y="900" width="140" height="70" as="geometry" />
        </mxCell>
      </root>
    </mxGraphModel>
  </diagram>
  <diagram id="Hob76yShjqfnAqez9uGe" name="Diagrama_atividade_cadastro_login">
    <mxGraphModel dx="1114" dy="664" grid="1" gridSize="10" guides="1" tooltips="1" connect="1" arrows="1" fold="1" page="1" pageScale="1" pageWidth="827" pageHeight="1169" math="0" shadow="0">
      <root>
        <mxCell id="0" />
        <mxCell id="1" parent="0" />
        <mxCell id="wGram5bhsqTnaHva7VRz-9" value="" style="rounded=1;whiteSpace=wrap;html=1;absoluteArcSize=1;arcSize=14;strokeWidth=2;" parent="1" vertex="1">
          <mxGeometry x="40" y="30" width="980" height="1450" as="geometry" />
        </mxCell>
        <mxCell id="wGram5bhsqTnaHva7VRz-10" value="" style="line;strokeWidth=1;fillColor=none;align=left;verticalAlign=middle;spacingTop=-1;spacingLeft=3;spacingRight=3;rotatable=0;labelPosition=right;points=[];portConstraint=eastwest;strokeColor=inherit;" parent="1" vertex="1">
          <mxGeometry x="40" y="70" width="980" height="8" as="geometry" />
        </mxCell>
        <mxCell id="wGram5bhsqTnaHva7VRz-11" value="Diagrama de atividade - Autenticação do sistema de empréstimos de livros" style="text;html=1;align=center;verticalAlign=middle;whiteSpace=wrap;rounded=0;" parent="1" vertex="1">
          <mxGeometry x="316" y="40" width="370" height="30" as="geometry" />
        </mxCell>
        <mxCell id="wGram5bhsqTnaHva7VRz-14" value="" style="line;strokeWidth=1;fillColor=none;align=left;verticalAlign=middle;spacingTop=-1;spacingLeft=3;spacingRight=3;rotatable=0;labelPosition=right;points=[];portConstraint=eastwest;strokeColor=inherit;" parent="1" vertex="1">
          <mxGeometry x="40" y="110" width="980" height="8" as="geometry" />
        </mxCell>
        <UserObject label="" id="wGram5bhsqTnaHva7VRz-15">
          <mxCell style="line;strokeWidth=1;fillColor=none;align=left;verticalAlign=middle;spacingTop=-1;spacingLeft=3;spacingRight=3;rotatable=0;labelPosition=right;points=[];portConstraint=eastwest;strokeColor=inherit;direction=south;" parent="1" vertex="1">
            <mxGeometry x="497" y="78" width="8" height="1392" as="geometry" />
          </mxCell>
        </UserObject>
        <mxCell id="wGram5bhsqTnaHva7VRz-18" value="USUARIO" style="text;html=1;align=center;verticalAlign=middle;whiteSpace=wrap;rounded=0;" parent="1" vertex="1">
          <mxGeometry x="170" y="78" width="60" height="30" as="geometry" />
        </mxCell>
        <mxCell id="wGram5bhsqTnaHva7VRz-19" value="SISTEMA" style="text;html=1;align=center;verticalAlign=middle;whiteSpace=wrap;rounded=0;" parent="1" vertex="1">
          <mxGeometry x="620" y="80" width="60" height="30" as="geometry" />
        </mxCell>
        <mxCell id="wGram5bhsqTnaHva7VRz-24" style="edgeStyle=orthogonalEdgeStyle;rounded=0;orthogonalLoop=1;jettySize=auto;html=1;exitX=0.5;exitY=1;exitDx=0;exitDy=0;entryX=0.5;entryY=0;entryDx=0;entryDy=0;" parent="1" source="wGram5bhsqTnaHva7VRz-21" target="wGram5bhsqTnaHva7VRz-23" edge="1">
          <mxGeometry relative="1" as="geometry" />
        </mxCell>
        <mxCell id="wGram5bhsqTnaHva7VRz-21" value="entra no sistema de autenticação" style="ellipse;whiteSpace=wrap;html=1;" parent="1" vertex="1">
          <mxGeometry x="155" y="118" width="90" height="60" as="geometry" />
        </mxCell>
        <mxCell id="wGram5bhsqTnaHva7VRz-26" style="edgeStyle=orthogonalEdgeStyle;rounded=0;orthogonalLoop=1;jettySize=auto;html=1;exitX=0.5;exitY=1;exitDx=0;exitDy=0;" parent="1" source="wGram5bhsqTnaHva7VRz-23" target="wGram5bhsqTnaHva7VRz-25" edge="1">
          <mxGeometry relative="1" as="geometry" />
        </mxCell>
        <mxCell id="wGram5bhsqTnaHva7VRz-23" value="VIsualiza tela inicial de escolha entre login/cadastro" style="rounded=0;whiteSpace=wrap;html=1;" parent="1" vertex="1">
          <mxGeometry x="140" y="240" width="120" height="60" as="geometry" />
        </mxCell>
        <mxCell id="wGram5bhsqTnaHva7VRz-29" style="edgeStyle=orthogonalEdgeStyle;rounded=0;orthogonalLoop=1;jettySize=auto;html=1;exitX=0.5;exitY=1;exitDx=0;exitDy=0;entryX=0.5;entryY=0;entryDx=0;entryDy=0;" parent="1" source="wGram5bhsqTnaHva7VRz-25" target="wGram5bhsqTnaHva7VRz-28" edge="1">
          <mxGeometry relative="1" as="geometry" />
        </mxCell>
        <mxCell id="wGram5bhsqTnaHva7VRz-45" style="edgeStyle=orthogonalEdgeStyle;rounded=0;orthogonalLoop=1;jettySize=auto;html=1;" parent="1" source="wGram5bhsqTnaHva7VRz-25" target="wGram5bhsqTnaHva7VRz-41" edge="1">
          <mxGeometry relative="1" as="geometry" />
        </mxCell>
        <mxCell id="wGram5bhsqTnaHva7VRz-25" value="Clica em cadastrar?" style="rhombus;whiteSpace=wrap;html=1;" parent="1" vertex="1">
          <mxGeometry x="160" y="340" width="80" height="80" as="geometry" />
        </mxCell>
        <mxCell id="wGram5bhsqTnaHva7VRz-32" style="edgeStyle=orthogonalEdgeStyle;rounded=0;orthogonalLoop=1;jettySize=auto;html=1;exitX=0.5;exitY=1;exitDx=0;exitDy=0;entryX=0.5;entryY=0;entryDx=0;entryDy=0;" parent="1" source="wGram5bhsqTnaHva7VRz-28" target="wGram5bhsqTnaHva7VRz-31" edge="1">
          <mxGeometry relative="1" as="geometry" />
        </mxCell>
        <mxCell id="wGram5bhsqTnaHva7VRz-28" value="Abre formulário de cadastro" style="rounded=0;whiteSpace=wrap;html=1;" parent="1" vertex="1">
          <mxGeometry x="140" y="490" width="120" height="60" as="geometry" />
        </mxCell>
        <mxCell id="wGram5bhsqTnaHva7VRz-30" value="Sim" style="text;html=1;align=center;verticalAlign=middle;whiteSpace=wrap;rounded=0;" parent="1" vertex="1">
          <mxGeometry x="150" y="420" width="60" height="30" as="geometry" />
        </mxCell>
        <mxCell id="wGram5bhsqTnaHva7VRz-35" style="edgeStyle=orthogonalEdgeStyle;rounded=0;orthogonalLoop=1;jettySize=auto;html=1;exitX=1;exitY=0.5;exitDx=0;exitDy=0;" parent="1" source="wGram5bhsqTnaHva7VRz-31" target="wGram5bhsqTnaHva7VRz-34" edge="1">
          <mxGeometry relative="1" as="geometry" />
        </mxCell>
        <mxCell id="nulsqnNAfnehMYfjkUiF-3" style="edgeStyle=orthogonalEdgeStyle;rounded=0;orthogonalLoop=1;jettySize=auto;html=1;exitX=0.5;exitY=1;exitDx=0;exitDy=0;entryX=0.5;entryY=0;entryDx=0;entryDy=0;" parent="1" source="wGram5bhsqTnaHva7VRz-31" target="nulsqnNAfnehMYfjkUiF-2" edge="1">
          <mxGeometry relative="1" as="geometry" />
        </mxCell>
        <mxCell id="wGram5bhsqTnaHva7VRz-31" value="Inseriu dados corretamente?" style="rhombus;whiteSpace=wrap;html=1;" parent="1" vertex="1">
          <mxGeometry x="150" y="900" width="100" height="105" as="geometry" />
        </mxCell>
        <mxCell id="wGram5bhsqTnaHva7VRz-33" value="Sim" style="text;html=1;align=center;verticalAlign=middle;whiteSpace=wrap;rounded=0;" parent="1" vertex="1">
          <mxGeometry x="220" y="915" width="60" height="30" as="geometry" />
        </mxCell>
        <mxCell id="wGram5bhsqTnaHva7VRz-37" style="edgeStyle=orthogonalEdgeStyle;rounded=0;orthogonalLoop=1;jettySize=auto;html=1;exitX=0.5;exitY=1;exitDx=0;exitDy=0;entryX=0.5;entryY=0;entryDx=0;entryDy=0;" parent="1" source="wGram5bhsqTnaHva7VRz-34" target="wGram5bhsqTnaHva7VRz-36" edge="1">
          <mxGeometry relative="1" as="geometry" />
        </mxCell>
        <mxCell id="wGram5bhsqTnaHva7VRz-34" value="Valida dados cadastrados" style="rounded=0;whiteSpace=wrap;html=1;" parent="1" vertex="1">
          <mxGeometry x="590" y="922.5" width="120" height="60" as="geometry" />
        </mxCell>
        <mxCell id="wGram5bhsqTnaHva7VRz-39" style="edgeStyle=orthogonalEdgeStyle;rounded=0;orthogonalLoop=1;jettySize=auto;html=1;exitX=0;exitY=0.5;exitDx=0;exitDy=0;entryX=1;entryY=0.5;entryDx=0;entryDy=0;" parent="1" source="wGram5bhsqTnaHva7VRz-36" target="wGram5bhsqTnaHva7VRz-38" edge="1">
          <mxGeometry relative="1" as="geometry" />
        </mxCell>
        <mxCell id="wGram5bhsqTnaHva7VRz-36" value="Dados OK?" style="rhombus;whiteSpace=wrap;html=1;" parent="1" vertex="1">
          <mxGeometry x="600" y="1240" width="100" height="105" as="geometry" />
        </mxCell>
        <mxCell id="wGram5bhsqTnaHva7VRz-38" value="Usuário cadastrado com sucesso" style="rounded=0;whiteSpace=wrap;html=1;" parent="1" vertex="1">
          <mxGeometry x="140" y="1262.5" width="120" height="60" as="geometry" />
        </mxCell>
        <mxCell id="wGram5bhsqTnaHva7VRz-40" value="Sim" style="text;html=1;align=center;verticalAlign=middle;whiteSpace=wrap;rounded=0;" parent="1" vertex="1">
          <mxGeometry x="560" y="1250" width="60" height="30" as="geometry" />
        </mxCell>
        <mxCell id="wGram5bhsqTnaHva7VRz-47" style="edgeStyle=orthogonalEdgeStyle;rounded=0;orthogonalLoop=1;jettySize=auto;html=1;exitX=0.5;exitY=1;exitDx=0;exitDy=0;entryX=0.5;entryY=0;entryDx=0;entryDy=0;" parent="1" source="wGram5bhsqTnaHva7VRz-41" target="wGram5bhsqTnaHva7VRz-46" edge="1">
          <mxGeometry relative="1" as="geometry" />
        </mxCell>
        <mxCell id="wGram5bhsqTnaHva7VRz-41" value="&lt;font color=&quot;#fafffd&quot;&gt;Abre tela de login&lt;/font&gt;" style="rounded=0;whiteSpace=wrap;html=1;fillColor=#009900;" parent="1" vertex="1">
          <mxGeometry x="330" y="350" width="120" height="60" as="geometry" />
        </mxCell>
        <mxCell id="wGram5bhsqTnaHva7VRz-42" value="Não" style="text;html=1;align=center;verticalAlign=middle;whiteSpace=wrap;rounded=0;" parent="1" vertex="1">
          <mxGeometry x="210" y="340" width="60" height="30" as="geometry" />
        </mxCell>
        <mxCell id="wGram5bhsqTnaHva7VRz-50" style="edgeStyle=orthogonalEdgeStyle;rounded=0;orthogonalLoop=1;jettySize=auto;html=1;exitX=1;exitY=0.5;exitDx=0;exitDy=0;entryX=0;entryY=0.5;entryDx=0;entryDy=0;" parent="1" source="wGram5bhsqTnaHva7VRz-46" target="wGram5bhsqTnaHva7VRz-48" edge="1">
          <mxGeometry relative="1" as="geometry" />
        </mxCell>
        <mxCell id="wGram5bhsqTnaHva7VRz-46" value="Insere credenciais" style="rounded=0;whiteSpace=wrap;html=1;" parent="1" vertex="1">
          <mxGeometry x="330" y="480" width="120" height="60" as="geometry" />
        </mxCell>
        <mxCell id="wGram5bhsqTnaHva7VRz-54" style="edgeStyle=orthogonalEdgeStyle;rounded=0;orthogonalLoop=1;jettySize=auto;html=1;exitX=0.5;exitY=1;exitDx=0;exitDy=0;entryX=0.5;entryY=0;entryDx=0;entryDy=0;" parent="1" source="wGram5bhsqTnaHva7VRz-48" target="wGram5bhsqTnaHva7VRz-53" edge="1">
          <mxGeometry relative="1" as="geometry" />
        </mxCell>
        <mxCell id="nulsqnNAfnehMYfjkUiF-13" style="edgeStyle=orthogonalEdgeStyle;rounded=0;orthogonalLoop=1;jettySize=auto;html=1;exitX=1;exitY=0.5;exitDx=0;exitDy=0;entryX=1;entryY=0.5;entryDx=0;entryDy=0;" parent="1" source="wGram5bhsqTnaHva7VRz-48" target="nulsqnNAfnehMYfjkUiF-12" edge="1">
          <mxGeometry relative="1" as="geometry" />
        </mxCell>
        <mxCell id="wGram5bhsqTnaHva7VRz-48" value="Credenciais OK?" style="rhombus;whiteSpace=wrap;html=1;" parent="1" vertex="1">
          <mxGeometry x="590" y="453.75" width="110" height="112.5" as="geometry" />
        </mxCell>
        <mxCell id="wGram5bhsqTnaHva7VRz-51" value="Usuário autentica no sistema" style="rounded=0;whiteSpace=wrap;html=1;" parent="1" vertex="1">
          <mxGeometry x="350" y="620" width="120" height="60" as="geometry" />
        </mxCell>
        <mxCell id="wGram5bhsqTnaHva7VRz-55" style="edgeStyle=orthogonalEdgeStyle;rounded=0;orthogonalLoop=1;jettySize=auto;html=1;exitX=0;exitY=0.5;exitDx=0;exitDy=0;entryX=1;entryY=0.5;entryDx=0;entryDy=0;" parent="1" source="wGram5bhsqTnaHva7VRz-53" target="wGram5bhsqTnaHva7VRz-51" edge="1">
          <mxGeometry relative="1" as="geometry" />
        </mxCell>
        <mxCell id="wGram5bhsqTnaHva7VRz-53" value="Verifica perfil do usuário" style="rounded=0;whiteSpace=wrap;html=1;" parent="1" vertex="1">
          <mxGeometry x="585" y="620" width="120" height="60" as="geometry" />
        </mxCell>
        <mxCell id="wGram5bhsqTnaHva7VRz-56" value="Sim" style="text;html=1;align=center;verticalAlign=middle;whiteSpace=wrap;rounded=0;" parent="1" vertex="1">
          <mxGeometry x="640" y="566.25" width="60" height="30" as="geometry" />
        </mxCell>
        <mxCell id="nulsqnNAfnehMYfjkUiF-5" style="edgeStyle=orthogonalEdgeStyle;rounded=0;orthogonalLoop=1;jettySize=auto;html=1;exitX=0.5;exitY=1;exitDx=0;exitDy=0;entryX=0;entryY=0.5;entryDx=0;entryDy=0;" parent="1" source="nulsqnNAfnehMYfjkUiF-2" target="wGram5bhsqTnaHva7VRz-31" edge="1">
          <mxGeometry relative="1" as="geometry">
            <Array as="points">
              <mxPoint x="200" y="1150" />
              <mxPoint x="100" y="1150" />
              <mxPoint x="100" y="953" />
            </Array>
          </mxGeometry>
        </mxCell>
        <mxCell id="nulsqnNAfnehMYfjkUiF-2" value="Exibir aviso de erro" style="rounded=0;whiteSpace=wrap;html=1;" parent="1" vertex="1">
          <mxGeometry x="140" y="1070" width="120" height="60" as="geometry" />
        </mxCell>
        <mxCell id="nulsqnNAfnehMYfjkUiF-6" value="Não" style="text;html=1;align=center;verticalAlign=middle;whiteSpace=wrap;rounded=0;" parent="1" vertex="1">
          <mxGeometry x="190" y="1005" width="60" height="30" as="geometry" />
        </mxCell>
        <mxCell id="nulsqnNAfnehMYfjkUiF-9" value="Não" style="text;html=1;align=center;verticalAlign=middle;whiteSpace=wrap;rounded=0;" parent="1" vertex="1">
          <mxGeometry x="680" y="480" width="60" height="30" as="geometry" />
        </mxCell>
        <mxCell id="nulsqnNAfnehMYfjkUiF-14" style="edgeStyle=orthogonalEdgeStyle;rounded=0;orthogonalLoop=1;jettySize=auto;html=1;exitX=0.5;exitY=1;exitDx=0;exitDy=0;" parent="1" source="nulsqnNAfnehMYfjkUiF-12" target="wGram5bhsqTnaHva7VRz-41" edge="1">
          <mxGeometry relative="1" as="geometry" />
        </mxCell>
        <mxCell id="nulsqnNAfnehMYfjkUiF-12" value="Exibir aviso de erro" style="rounded=0;whiteSpace=wrap;html=1;" parent="1" vertex="1">
          <mxGeometry x="330" y="220" width="120" height="60" as="geometry" />
        </mxCell>
      </root>
    </mxGraphModel>
  </diagram>
  <diagram id="4gQjoz81WeCsNEGhwfh6" name="Diagrama_Atividade_publicar_livro">
    <mxGraphModel dx="1114" dy="1833" grid="1" gridSize="10" guides="1" tooltips="1" connect="1" arrows="1" fold="1" page="1" pageScale="1" pageWidth="827" pageHeight="1169" math="0" shadow="0">
      <root>
        <mxCell id="0" />
        <mxCell id="1" parent="0" />
        <mxCell id="CZEfRHlbuiNeiHoXNnBf-1" value="&lt;span style=&quot;color: rgba(0, 0, 0, 0); font-family: monospace; font-size: 0px; text-align: start; text-wrap: nowrap;&quot;&gt;%3CmxGraphModel%3E%3Croot%3E%3CmxCell%20id%3D%220%22%2F%3E%3CmxCell%20id%3D%221%22%20parent%3D%220%22%2F%3E%3CmxCell%20id%3D%222%22%20value%3D%22Diagrama%20de%20atividade%20-%20Autentica%C3%A7%C3%A3o%20do%20sistema%20de%20empr%C3%A9stimos%20de%20livros%22%20style%3D%22text%3Bhtml%3D1%3Balign%3Dcenter%3BverticalAlign%3Dmiddle%3BwhiteSpace%3Dwrap%3Brounded%3D0%3B%22%20vertex%3D%221%22%20parent%3D%221%22%3E%3CmxGeometry%20x%3D%22316%22%20y%3D%2240%22%20width%3D%22370%22%20height%3D%2230%22%20as%3D%22geometry%22%2F%3E%3C%2FmxCell%3E%3C%2Froot%3E%3C%2FmxGraphModel%3E&lt;/span&gt;" style="rounded=1;whiteSpace=wrap;html=1;absoluteArcSize=1;arcSize=14;strokeWidth=2;" parent="1" vertex="1">
          <mxGeometry x="50" y="-200" width="980" height="1450" as="geometry" />
        </mxCell>
        <mxCell id="reOd27py7ocOHkjfqAK7-1" style="edgeStyle=orthogonalEdgeStyle;rounded=0;orthogonalLoop=1;jettySize=auto;html=1;exitX=0.5;exitY=1;exitDx=0;exitDy=0;" parent="1" source="WLuxRguwKTgUOFruPctG-1" target="WLuxRguwKTgUOFruPctG-2" edge="1">
          <mxGeometry relative="1" as="geometry" />
        </mxCell>
        <mxCell id="WLuxRguwKTgUOFruPctG-1" value="Usuario entra na pagina principal" style="ellipse;whiteSpace=wrap;html=1;" parent="1" vertex="1">
          <mxGeometry x="130" y="-92" width="120" height="80" as="geometry" />
        </mxCell>
        <mxCell id="WLuxRguwKTgUOFruPctG-4" style="edgeStyle=orthogonalEdgeStyle;rounded=0;orthogonalLoop=1;jettySize=auto;html=1;entryX=0.5;entryY=0;entryDx=0;entryDy=0;" parent="1" source="WLuxRguwKTgUOFruPctG-2" target="WLuxRguwKTgUOFruPctG-5" edge="1">
          <mxGeometry relative="1" as="geometry">
            <mxPoint x="190" y="340" as="targetPoint" />
          </mxGeometry>
        </mxCell>
        <mxCell id="qzNDlpaGDkFueQBm213v-3" style="edgeStyle=orthogonalEdgeStyle;rounded=0;orthogonalLoop=1;jettySize=auto;html=1;exitX=1;exitY=0.5;exitDx=0;exitDy=0;entryX=0;entryY=0.5;entryDx=0;entryDy=0;" parent="1" source="WLuxRguwKTgUOFruPctG-2" target="qzNDlpaGDkFueQBm213v-1" edge="1">
          <mxGeometry relative="1" as="geometry" />
        </mxCell>
        <mxCell id="WLuxRguwKTgUOFruPctG-2" value="Deseja publicar livro?" style="rhombus;whiteSpace=wrap;html=1;" parent="1" vertex="1">
          <mxGeometry x="137.5" y="90" width="105" height="100" as="geometry" />
        </mxCell>
        <mxCell id="WLuxRguwKTgUOFruPctG-7" style="edgeStyle=orthogonalEdgeStyle;rounded=0;orthogonalLoop=1;jettySize=auto;html=1;exitX=1;exitY=0.5;exitDx=0;exitDy=0;entryX=0;entryY=0.5;entryDx=0;entryDy=0;" parent="1" source="WLuxRguwKTgUOFruPctG-5" target="WLuxRguwKTgUOFruPctG-6" edge="1">
          <mxGeometry relative="1" as="geometry" />
        </mxCell>
        <mxCell id="WLuxRguwKTgUOFruPctG-5" value="Está&amp;nbsp;&lt;div&gt;autenticado?&lt;/div&gt;" style="rhombus;whiteSpace=wrap;html=1;" parent="1" vertex="1">
          <mxGeometry x="137.5" y="320" width="105" height="100" as="geometry" />
        </mxCell>
        <mxCell id="WLuxRguwKTgUOFruPctG-10" style="edgeStyle=orthogonalEdgeStyle;rounded=0;orthogonalLoop=1;jettySize=auto;html=1;exitX=0.5;exitY=0;exitDx=0;exitDy=0;entryX=0.5;entryY=0;entryDx=0;entryDy=0;" parent="1" source="WLuxRguwKTgUOFruPctG-6" target="WLuxRguwKTgUOFruPctG-5" edge="1">
          <mxGeometry relative="1" as="geometry">
            <Array as="points">
              <mxPoint x="350" y="290" />
              <mxPoint x="190" y="290" />
            </Array>
          </mxGeometry>
        </mxCell>
        <mxCell id="WLuxRguwKTgUOFruPctG-6" value="Ir para página de autenticação" style="rounded=1;whiteSpace=wrap;html=1;" parent="1" vertex="1">
          <mxGeometry x="290" y="340" width="120" height="60" as="geometry" />
        </mxCell>
        <mxCell id="WLuxRguwKTgUOFruPctG-11" value="Não" style="text;html=1;align=center;verticalAlign=middle;whiteSpace=wrap;rounded=0;" parent="1" vertex="1">
          <mxGeometry x="230" y="340" width="60" height="30" as="geometry" />
        </mxCell>
        <mxCell id="WLuxRguwKTgUOFruPctG-12" value="Sim" style="text;html=1;align=center;verticalAlign=middle;whiteSpace=wrap;rounded=0;" parent="1" vertex="1">
          <mxGeometry x="137.5" y="180" width="60" height="30" as="geometry" />
        </mxCell>
        <mxCell id="qufm0i8A1ofwm1Uui5Ax-1" value="" style="line;strokeWidth=1;fillColor=none;align=left;verticalAlign=middle;spacingTop=-1;spacingLeft=3;spacingRight=3;rotatable=0;labelPosition=right;points=[];portConstraint=eastwest;strokeColor=inherit;" parent="1" vertex="1">
          <mxGeometry x="40" y="-140" width="980" height="8" as="geometry" />
        </mxCell>
        <mxCell id="qufm0i8A1ofwm1Uui5Ax-2" value="" style="line;strokeWidth=1;fillColor=none;align=left;verticalAlign=middle;spacingTop=-1;spacingLeft=3;spacingRight=3;rotatable=0;labelPosition=right;points=[];portConstraint=eastwest;strokeColor=inherit;" parent="1" vertex="1">
          <mxGeometry x="40" y="-100" width="980" height="8" as="geometry" />
        </mxCell>
        <UserObject label="" id="qufm0i8A1ofwm1Uui5Ax-3">
          <mxCell style="line;strokeWidth=1;fillColor=none;align=left;verticalAlign=middle;spacingTop=-1;spacingLeft=3;spacingRight=3;rotatable=0;labelPosition=right;points=[];portConstraint=eastwest;strokeColor=inherit;direction=south;" parent="1" vertex="1">
            <mxGeometry x="660" y="-132" width="8" height="1392" as="geometry" />
          </mxCell>
        </UserObject>
        <mxCell id="xtLWSRsK9vQkdFbpNuuD-1" value="Diagrama de atividade - Fluxo de publicação de empréstimos, trocas e doações de livros" style="text;html=1;align=center;verticalAlign=middle;whiteSpace=wrap;rounded=0;" parent="1" vertex="1">
          <mxGeometry x="316" y="-180" width="370" height="30" as="geometry" />
        </mxCell>
        <mxCell id="qKeLB42EGwgWNXOYKX8a-1" value="USUARIO" style="text;html=1;align=center;verticalAlign=middle;whiteSpace=wrap;rounded=0;" parent="1" vertex="1">
          <mxGeometry x="230" y="-132" width="60" height="30" as="geometry" />
        </mxCell>
        <mxCell id="Em7o8WD8xR8ZGwFiLHlS-1" value="SISTEMA" style="text;html=1;align=center;verticalAlign=middle;whiteSpace=wrap;rounded=0;" parent="1" vertex="1">
          <mxGeometry x="820" y="-132" width="60" height="30" as="geometry" />
        </mxCell>
        <mxCell id="JbF2SalteOkJfByxuqZ6-6" value="Não" style="text;html=1;align=center;verticalAlign=middle;whiteSpace=wrap;rounded=0;" parent="1" vertex="1">
          <mxGeometry x="220" y="110" width="60" height="30" as="geometry" />
        </mxCell>
        <mxCell id="qzNDlpaGDkFueQBm213v-1" value="Ir para fluxo de solicitação de livro" style="rounded=0;whiteSpace=wrap;html=1;" parent="1" vertex="1">
          <mxGeometry x="370" y="110" width="170" height="60" as="geometry" />
        </mxCell>
      </root>
    </mxGraphModel>
  </diagram>
  <diagram name="Diagrama_Atividade_Solicitar_livro" id="mihFrsBvw5Q7U6aJZBEL">
    <mxGraphModel dx="2228" dy="2497" grid="1" gridSize="10" guides="1" tooltips="1" connect="1" arrows="1" fold="1" page="1" pageScale="1" pageWidth="827" pageHeight="1169" math="0" shadow="0">
      <root>
        <mxCell id="OJWw0S0tETer-4cXw3E5-0" />
        <mxCell id="OJWw0S0tETer-4cXw3E5-1" parent="OJWw0S0tETer-4cXw3E5-0" />
        <mxCell id="OJWw0S0tETer-4cXw3E5-2" value="&lt;span style=&quot;color: rgba(0, 0, 0, 0); font-family: monospace; font-size: 0px; text-align: start; text-wrap: nowrap;&quot;&gt;%3CmxGraphModel%3E%3Croot%3E%3CmxCell%20id%3D%220%22%2F%3E%3CmxCell%20id%3D%221%22%20parent%3D%220%22%2F%3E%3CmxCell%20id%3D%222%22%20value%3D%22Diagrama%20de%20atividade%20-%20Autentica%C3%A7%C3%A3o%20do%20sistema%20de%20empr%C3%A9stimos%20de%20livros%22%20style%3D%22text%3Bhtml%3D1%3Balign%3Dcenter%3BverticalAlign%3Dmiddle%3BwhiteSpace%3Dwrap%3Brounded%3D0%3B%22%20vertex%3D%221%22%20parent%3D%221%22%3E%3CmxGeometry%20x%3D%22316%22%20y%3D%2240%22%20width%3D%22370%22%20height%3D%2230%22%20as%3D%22geometry%22%2F%3E%3C%2FmxCell%3E%3C%2Froot%3E%3C%2FmxGraphModel%3E&lt;/span&gt;" style="rounded=1;whiteSpace=wrap;html=1;absoluteArcSize=1;arcSize=14;strokeWidth=2;" parent="OJWw0S0tETer-4cXw3E5-1" vertex="1">
          <mxGeometry x="40" y="-200" width="980" height="1450" as="geometry" />
        </mxCell>
        <mxCell id="OJWw0S0tETer-4cXw3E5-3" style="edgeStyle=orthogonalEdgeStyle;rounded=0;orthogonalLoop=1;jettySize=auto;html=1;exitX=0.5;exitY=1;exitDx=0;exitDy=0;" parent="OJWw0S0tETer-4cXw3E5-1" source="OJWw0S0tETer-4cXw3E5-4" target="OJWw0S0tETer-4cXw3E5-7" edge="1">
          <mxGeometry relative="1" as="geometry">
            <mxPoint x="190" y="70" as="targetPoint" />
          </mxGeometry>
        </mxCell>
        <mxCell id="OJWw0S0tETer-4cXw3E5-4" value="Usuario entra na pagina principal" style="ellipse;whiteSpace=wrap;html=1;" parent="OJWw0S0tETer-4cXw3E5-1" vertex="1">
          <mxGeometry x="130" y="-70" width="120" height="80" as="geometry" />
        </mxCell>
        <mxCell id="OJWw0S0tETer-4cXw3E5-5" style="edgeStyle=orthogonalEdgeStyle;rounded=0;orthogonalLoop=1;jettySize=auto;html=1;entryX=0.5;entryY=0;entryDx=0;entryDy=0;" parent="OJWw0S0tETer-4cXw3E5-1" source="OJWw0S0tETer-4cXw3E5-7" target="OJWw0S0tETer-4cXw3E5-9" edge="1">
          <mxGeometry relative="1" as="geometry">
            <mxPoint x="190" y="340" as="targetPoint" />
          </mxGeometry>
        </mxCell>
        <mxCell id="OJWw0S0tETer-4cXw3E5-6" style="edgeStyle=orthogonalEdgeStyle;rounded=0;orthogonalLoop=1;jettySize=auto;html=1;exitX=1;exitY=0.5;exitDx=0;exitDy=0;entryX=0;entryY=0.5;entryDx=0;entryDy=0;" parent="OJWw0S0tETer-4cXw3E5-1" source="OJWw0S0tETer-4cXw3E5-7" target="OJWw0S0tETer-4cXw3E5-21" edge="1">
          <mxGeometry relative="1" as="geometry">
            <mxPoint x="360" y="140" as="targetPoint" />
          </mxGeometry>
        </mxCell>
        <mxCell id="OJWw0S0tETer-4cXw3E5-7" value="Deseja publicar livro?" style="rhombus;whiteSpace=wrap;html=1;" parent="OJWw0S0tETer-4cXw3E5-1" vertex="1">
          <mxGeometry x="137.5" y="90" width="105" height="100" as="geometry" />
        </mxCell>
        <mxCell id="OJWw0S0tETer-4cXw3E5-8" style="edgeStyle=orthogonalEdgeStyle;rounded=0;orthogonalLoop=1;jettySize=auto;html=1;exitX=1;exitY=0.5;exitDx=0;exitDy=0;entryX=0;entryY=0.5;entryDx=0;entryDy=0;" parent="OJWw0S0tETer-4cXw3E5-1" source="OJWw0S0tETer-4cXw3E5-9" target="OJWw0S0tETer-4cXw3E5-11" edge="1">
          <mxGeometry relative="1" as="geometry" />
        </mxCell>
        <mxCell id="OJWw0S0tETer-4cXw3E5-9" value="Está&amp;nbsp;&lt;div&gt;autenticado?&lt;/div&gt;" style="rhombus;whiteSpace=wrap;html=1;" parent="OJWw0S0tETer-4cXw3E5-1" vertex="1">
          <mxGeometry x="137.5" y="320" width="105" height="100" as="geometry" />
        </mxCell>
        <mxCell id="OJWw0S0tETer-4cXw3E5-10" style="edgeStyle=orthogonalEdgeStyle;rounded=0;orthogonalLoop=1;jettySize=auto;html=1;exitX=0.5;exitY=0;exitDx=0;exitDy=0;entryX=0.5;entryY=0;entryDx=0;entryDy=0;" parent="OJWw0S0tETer-4cXw3E5-1" source="OJWw0S0tETer-4cXw3E5-11" target="OJWw0S0tETer-4cXw3E5-9" edge="1">
          <mxGeometry relative="1" as="geometry">
            <Array as="points">
              <mxPoint x="350" y="290" />
              <mxPoint x="190" y="290" />
            </Array>
          </mxGeometry>
        </mxCell>
        <mxCell id="OJWw0S0tETer-4cXw3E5-11" value="Ir para página de autenticação" style="rounded=1;whiteSpace=wrap;html=1;" parent="OJWw0S0tETer-4cXw3E5-1" vertex="1">
          <mxGeometry x="290" y="340" width="120" height="60" as="geometry" />
        </mxCell>
        <mxCell id="OJWw0S0tETer-4cXw3E5-12" value="Não" style="text;html=1;align=center;verticalAlign=middle;whiteSpace=wrap;rounded=0;" parent="OJWw0S0tETer-4cXw3E5-1" vertex="1">
          <mxGeometry x="230" y="340" width="60" height="30" as="geometry" />
        </mxCell>
        <mxCell id="OJWw0S0tETer-4cXw3E5-13" value="Sim" style="text;html=1;align=center;verticalAlign=middle;whiteSpace=wrap;rounded=0;" parent="OJWw0S0tETer-4cXw3E5-1" vertex="1">
          <mxGeometry x="137.5" y="180" width="60" height="30" as="geometry" />
        </mxCell>
        <mxCell id="OJWw0S0tETer-4cXw3E5-14" value="" style="line;strokeWidth=1;fillColor=none;align=left;verticalAlign=middle;spacingTop=-1;spacingLeft=3;spacingRight=3;rotatable=0;labelPosition=right;points=[];portConstraint=eastwest;strokeColor=inherit;" parent="OJWw0S0tETer-4cXw3E5-1" vertex="1">
          <mxGeometry x="40" y="-140" width="980" height="8" as="geometry" />
        </mxCell>
        <mxCell id="OJWw0S0tETer-4cXw3E5-15" value="" style="line;strokeWidth=1;fillColor=none;align=left;verticalAlign=middle;spacingTop=-1;spacingLeft=3;spacingRight=3;rotatable=0;labelPosition=right;points=[];portConstraint=eastwest;strokeColor=inherit;" parent="OJWw0S0tETer-4cXw3E5-1" vertex="1">
          <mxGeometry x="40" y="-100" width="980" height="8" as="geometry" />
        </mxCell>
        <UserObject label="" id="OJWw0S0tETer-4cXw3E5-16">
          <mxCell style="line;strokeWidth=1;fillColor=none;align=left;verticalAlign=middle;spacingTop=-1;spacingLeft=3;spacingRight=3;rotatable=0;labelPosition=right;points=[];portConstraint=eastwest;strokeColor=inherit;direction=south;" parent="OJWw0S0tETer-4cXw3E5-1" vertex="1">
            <mxGeometry x="660" y="-132" width="8" height="1392" as="geometry" />
          </mxCell>
        </UserObject>
        <mxCell id="OJWw0S0tETer-4cXw3E5-17" value="Diagrama de atividade - Fluxo de solicitação de empréstimos, trocas e doações de livros" style="text;html=1;align=center;verticalAlign=middle;whiteSpace=wrap;rounded=0;" parent="OJWw0S0tETer-4cXw3E5-1" vertex="1">
          <mxGeometry x="316" y="-180" width="370" height="30" as="geometry" />
        </mxCell>
        <mxCell id="OJWw0S0tETer-4cXw3E5-18" value="USUARIO" style="text;html=1;align=center;verticalAlign=middle;whiteSpace=wrap;rounded=0;" parent="OJWw0S0tETer-4cXw3E5-1" vertex="1">
          <mxGeometry x="230" y="-132" width="60" height="30" as="geometry" />
        </mxCell>
        <mxCell id="OJWw0S0tETer-4cXw3E5-19" value="SISTEMA" style="text;html=1;align=center;verticalAlign=middle;whiteSpace=wrap;rounded=0;" parent="OJWw0S0tETer-4cXw3E5-1" vertex="1">
          <mxGeometry x="820" y="-132" width="60" height="30" as="geometry" />
        </mxCell>
        <mxCell id="OJWw0S0tETer-4cXw3E5-20" value="Não" style="text;html=1;align=center;verticalAlign=middle;whiteSpace=wrap;rounded=0;" parent="OJWw0S0tETer-4cXw3E5-1" vertex="1">
          <mxGeometry x="220" y="110" width="60" height="30" as="geometry" />
        </mxCell>
        <mxCell id="OJWw0S0tETer-4cXw3E5-21" value="Ir para fluxo de solicitação de livro" style="rounded=0;whiteSpace=wrap;html=1;" parent="OJWw0S0tETer-4cXw3E5-1" vertex="1">
          <mxGeometry x="380" y="110" width="170" height="60" as="geometry" />
        </mxCell>
      </root>
    </mxGraphModel>
  </diagram>
  <diagram id="R7DtXnIElYBUi2DsOcyd" name="Diagrama_Atividade_Lista_Disponibilidade">
    <mxGraphModel dx="1311" dy="1950" grid="1" gridSize="10" guides="1" tooltips="1" connect="1" arrows="1" fold="1" page="1" pageScale="1" pageWidth="827" pageHeight="1169" math="0" shadow="0">
      <root>
        <mxCell id="0" />
        <mxCell id="1" parent="0" />
        <mxCell id="A7Q0N7sx03-Q4b9F3PQi-1" value="&lt;span style=&quot;color: rgba(0, 0, 0, 0); font-family: monospace; font-size: 0px; text-align: start; text-wrap: nowrap;&quot;&gt;%3CmxGraphModel%3E%3Croot%3E%3CmxCell%20id%3D%220%22%2F%3E%3CmxCell%20id%3D%221%22%20parent%3D%220%22%2F%3E%3CmxCell%20id%3D%222%22%20value%3D%22Diagrama%20de%20atividade%20-%20Autentica%C3%A7%C3%A3o%20do%20sistema%20de%20empr%C3%A9stimos%20de%20livros%22%20style%3D%22text%3Bhtml%3D1%3Balign%3Dcenter%3BverticalAlign%3Dmiddle%3BwhiteSpace%3Dwrap%3Brounded%3D0%3B%22%20vertex%3D%221%22%20parent%3D%221%22%3E%3CmxGeometry%20x%3D%22316%22%20y%3D%2240%22%20width%3D%22370%22%20height%3D%2230%22%20as%3D%22geometry%22%2F%3E%3C%2FmxCell%3E%3C%2Froot%3E%3C%2FmxGraphModel%3E&lt;/span&gt;" style="rounded=1;whiteSpace=wrap;html=1;absoluteArcSize=1;arcSize=14;strokeWidth=2;" vertex="1" parent="1">
          <mxGeometry x="40" y="-200" width="980" height="1450" as="geometry" />
        </mxCell>
        <mxCell id="A7Q0N7sx03-Q4b9F3PQi-2" style="edgeStyle=orthogonalEdgeStyle;rounded=0;orthogonalLoop=1;jettySize=auto;html=1;exitX=0.5;exitY=1;exitDx=0;exitDy=0;" edge="1" parent="1" source="A7Q0N7sx03-Q4b9F3PQi-3" target="A7Q0N7sx03-Q4b9F3PQi-6">
          <mxGeometry relative="1" as="geometry">
            <mxPoint x="190" y="70" as="targetPoint" />
          </mxGeometry>
        </mxCell>
        <mxCell id="A7Q0N7sx03-Q4b9F3PQi-3" value="Usuario entra na barra de pesquisa" style="ellipse;whiteSpace=wrap;html=1;" vertex="1" parent="1">
          <mxGeometry x="130" y="-70" width="120" height="80" as="geometry" />
        </mxCell>
        <mxCell id="A7Q0N7sx03-Q4b9F3PQi-5" style="edgeStyle=orthogonalEdgeStyle;rounded=0;orthogonalLoop=1;jettySize=auto;html=1;exitX=1;exitY=0.5;exitDx=0;exitDy=0;entryX=0;entryY=0.5;entryDx=0;entryDy=0;" edge="1" parent="1" source="A7Q0N7sx03-Q4b9F3PQi-6" target="A7Q0N7sx03-Q4b9F3PQi-20">
          <mxGeometry relative="1" as="geometry">
            <mxPoint x="360" y="150" as="targetPoint" />
          </mxGeometry>
        </mxCell>
        <mxCell id="AwfgyovN3DL21NFksVgY-11" value="" style="edgeStyle=orthogonalEdgeStyle;rounded=0;orthogonalLoop=1;jettySize=auto;html=1;" edge="1" parent="1" source="A7Q0N7sx03-Q4b9F3PQi-6" target="AwfgyovN3DL21NFksVgY-10">
          <mxGeometry relative="1" as="geometry" />
        </mxCell>
        <mxCell id="AwfgyovN3DL21NFksVgY-13" value="" style="edgeStyle=orthogonalEdgeStyle;rounded=0;orthogonalLoop=1;jettySize=auto;html=1;" edge="1" parent="1" source="A7Q0N7sx03-Q4b9F3PQi-6" target="AwfgyovN3DL21NFksVgY-10">
          <mxGeometry relative="1" as="geometry" />
        </mxCell>
        <mxCell id="AwfgyovN3DL21NFksVgY-17" value="" style="edgeStyle=orthogonalEdgeStyle;rounded=0;orthogonalLoop=1;jettySize=auto;html=1;" edge="1" parent="1" source="A7Q0N7sx03-Q4b9F3PQi-6" target="AwfgyovN3DL21NFksVgY-16">
          <mxGeometry relative="1" as="geometry" />
        </mxCell>
        <mxCell id="A7Q0N7sx03-Q4b9F3PQi-6" value="Nome&amp;nbsp;&lt;div&gt;pesquisado&lt;/div&gt;" style="rhombus;whiteSpace=wrap;html=1;" vertex="1" parent="1">
          <mxGeometry x="137.5" y="100" width="105" height="100" as="geometry" />
        </mxCell>
        <mxCell id="A7Q0N7sx03-Q4b9F3PQi-12" value="encontrado" style="text;html=1;align=center;verticalAlign=middle;whiteSpace=wrap;rounded=0;" vertex="1" parent="1">
          <mxGeometry x="120" y="190" width="60" height="30" as="geometry" />
        </mxCell>
        <mxCell id="A7Q0N7sx03-Q4b9F3PQi-13" value="" style="line;strokeWidth=1;fillColor=none;align=left;verticalAlign=middle;spacingTop=-1;spacingLeft=3;spacingRight=3;rotatable=0;labelPosition=right;points=[];portConstraint=eastwest;strokeColor=inherit;" vertex="1" parent="1">
          <mxGeometry x="40" y="-140" width="980" height="8" as="geometry" />
        </mxCell>
        <mxCell id="A7Q0N7sx03-Q4b9F3PQi-14" value="" style="line;strokeWidth=1;fillColor=none;align=left;verticalAlign=middle;spacingTop=-1;spacingLeft=3;spacingRight=3;rotatable=0;labelPosition=right;points=[];portConstraint=eastwest;strokeColor=inherit;" vertex="1" parent="1">
          <mxGeometry x="40" y="-100" width="980" height="8" as="geometry" />
        </mxCell>
        <UserObject label="" id="A7Q0N7sx03-Q4b9F3PQi-15">
          <mxCell style="line;strokeWidth=1;fillColor=none;align=left;verticalAlign=middle;spacingTop=-1;spacingLeft=3;spacingRight=3;rotatable=0;labelPosition=right;points=[];portConstraint=eastwest;strokeColor=inherit;direction=south;" vertex="1" parent="1">
            <mxGeometry x="660" y="-132" width="8" height="1392" as="geometry" />
          </mxCell>
        </UserObject>
        <mxCell id="A7Q0N7sx03-Q4b9F3PQi-16" value="Diagrama de atividade - Lista de Disponibilidade de Livros" style="text;html=1;align=center;verticalAlign=middle;whiteSpace=wrap;rounded=0;" vertex="1" parent="1">
          <mxGeometry x="316" y="-180" width="370" height="30" as="geometry" />
        </mxCell>
        <mxCell id="A7Q0N7sx03-Q4b9F3PQi-17" value="USUARIO" style="text;html=1;align=center;verticalAlign=middle;whiteSpace=wrap;rounded=0;" vertex="1" parent="1">
          <mxGeometry x="230" y="-132" width="60" height="30" as="geometry" />
        </mxCell>
        <mxCell id="A7Q0N7sx03-Q4b9F3PQi-18" value="SISTEMA" style="text;html=1;align=center;verticalAlign=middle;whiteSpace=wrap;rounded=0;" vertex="1" parent="1">
          <mxGeometry x="820" y="-132" width="60" height="30" as="geometry" />
        </mxCell>
        <mxCell id="A7Q0N7sx03-Q4b9F3PQi-19" value="Não encontrado" style="text;html=1;align=center;verticalAlign=middle;whiteSpace=wrap;rounded=0;" vertex="1" parent="1">
          <mxGeometry x="220" y="120" width="110" height="30" as="geometry" />
        </mxCell>
        <mxCell id="A7Q0N7sx03-Q4b9F3PQi-20" value="Aviso de Livro não encontrado&lt;div&gt;e possibilidade erro no nome&lt;/div&gt;" style="rounded=0;whiteSpace=wrap;html=1;" vertex="1" parent="1">
          <mxGeometry x="380" y="120" width="170" height="60" as="geometry" />
        </mxCell>
        <mxCell id="AwfgyovN3DL21NFksVgY-10" value="Tipos de Publicação&lt;div&gt;(Troca/Emp/Doação)&lt;/div&gt;" style="whiteSpace=wrap;html=1;" vertex="1" parent="1">
          <mxGeometry x="60" y="260" width="120" height="60" as="geometry" />
        </mxCell>
        <mxCell id="AwfgyovN3DL21NFksVgY-20" value="" style="edgeStyle=orthogonalEdgeStyle;rounded=0;orthogonalLoop=1;jettySize=auto;html=1;" edge="1" parent="1" source="AwfgyovN3DL21NFksVgY-16" target="AwfgyovN3DL21NFksVgY-19">
          <mxGeometry relative="1" as="geometry" />
        </mxCell>
        <mxCell id="AwfgyovN3DL21NFksVgY-16" value="Filtro de Pesquisa" style="whiteSpace=wrap;html=1;" vertex="1" parent="1">
          <mxGeometry x="230" y="260" width="120" height="60" as="geometry" />
        </mxCell>
        <mxCell id="AwfgyovN3DL21NFksVgY-19" value="Categorias, Tipos" style="whiteSpace=wrap;html=1;" vertex="1" parent="1">
          <mxGeometry x="707" y="260" width="120" height="60" as="geometry" />
        </mxCell>
      </root>
    </mxGraphModel>
  </diagram>
</mxfile>
